STARTFONT 2.1
COMMENT
COMMENT Converted from OpenType font "CQ Mono.otf" by "otf2bdf 3.0".
COMMENT
FONT -FreeType-CQ Mono-Medium-R-Normal--42-300-100-100-M-146-ISO10646-1
SIZE 30 100 100
FONTBOUNDINGBOX 17 45 0 -8
STARTPROPERTIES 19
FOUNDRY "FreeType"
FAMILY_NAME "CQ Mono"
WEIGHT_NAME "Medium"
SLANT "R"
SETWIDTH_NAME "Normal"
ADD_STYLE_NAME ""
PIXEL_SIZE 42
POINT_SIZE 300
RESOLUTION_X 100
RESOLUTION_Y 100
SPACING "M"
AVERAGE_WIDTH 146
CHARSET_REGISTRY "ISO10646"
CHARSET_ENCODING "1"
FONT_ASCENT 35
FONT_DESCENT 8
COPYRIGHT "Typeface ©Chequered Ink. 2016. All Rights Reserved"
_OTF_FONTFILE "CQ Mono.otf"
_OTF_PSNAME "CQMono"
ENDPROPERTIES
CHARS 207
STARTCHAR 0000
ENCODING 0
SWIDTH 0 0
DWIDTH 0 0
BBX 0 0 0 0
BITMAP
ENDCHAR
STARTCHAR 001D
ENCODING 29
SWIDTH 0 0
DWIDTH 0 0
BBX 0 0 0 0
BITMAP
ENDCHAR
STARTCHAR 0020
ENCODING 32
SWIDTH 480 0
DWIDTH 20 0
BBX 0 0 0 0
BITMAP
ENDCHAR
STARTCHAR 0021
ENCODING 33
SWIDTH 480 0
DWIDTH 20 0
BBX 4 28 6 0
BITMAP
60
F0
F0
F0
F0
F0
F0
F0
F0
F0
F0
F0
F0
F0
F0
F0
F0
F0
F0
60
00
00
00
00
60
F0
F0
60
ENDCHAR
STARTCHAR 0022
ENCODING 34
SWIDTH 480 0
DWIDTH 20 0
BBX 10 8 3 20
BITMAP
6180
F3C0
F3C0
F3C0
F3C0
F3C0
F3C0
6180
ENDCHAR
STARTCHAR 0023
ENCODING 35
SWIDTH 480 0
DWIDTH 20 0
BBX 16 28 0 0
BITMAP
0C30
1E78
1E78
1E78
7FFE
FFFF
FFFF
7FFE
1E78
1E78
1E78
1E78
1E78
1E78
1E78
1E78
1E78
1E78
1E78
1E78
7FFE
FFFF
FFFF
7FFE
1E78
1E78
1E78
0C30
ENDCHAR
STARTCHAR 0024
ENCODING 36
SWIDTH 480 0
DWIDTH 20 0
BBX 16 36 0 -4
BITMAP
0180
03C0
03C0
03C0
07F0
1FFC
3FFF
7FFF
7FCF
FBC6
F3C0
F3C0
F3C0
F3C0
FBC0
7FC0
7FE0
3FF8
1FFC
07FE
03FE
03DF
03CF
03CF
03CF
03CF
63DF
F3FE
FFFE
7FFC
3FF8
0FE0
03C0
03C0
03C0
0180
ENDCHAR
STARTCHAR 0025
ENCODING 37
SWIDTH 480 0
DWIDTH 20 0
BBX 16 28 0 0
BITMAP
7806
FC0F
FC1F
FC1E
FC3E
783E
007C
007C
00F8
00F8
01F0
01F0
03E0
03E0
07C0
07C0
0F80
0F80
1F00
1F00
3E00
3E00
7C1E
7C3F
783F
F83F
F03F
601E
ENDCHAR
STARTCHAR 0026
ENCODING 38
SWIDTH 480 0
DWIDTH 20 0
BBX 16 28 0 0
BITMAP
03F0
1FFC
3FFF
7FFF
7C0F
F806
F000
F000
F000
F00F
F80F
7C0F
7FFF
3FFF
3FFF
7FFF
7C0F
F80F
F00F
F00F
F00F
F00F
F80F
7C1F
7FFF
3FFE
1FFC
03F0
ENDCHAR
STARTCHAR 0027
ENCODING 39
SWIDTH 480 0
DWIDTH 20 0
BBX 4 8 6 20
BITMAP
60
F0
F0
F0
F0
F0
F0
60
ENDCHAR
STARTCHAR 0028
ENCODING 40
SWIDTH 480 0
DWIDTH 20 0
BBX 10 36 3 -4
BITMAP
0780
1FC0
3FC0
7F80
7C00
F800
F000
F000
F000
F000
F000
F000
F000
F000
F000
F000
F000
F000
F000
F000
F000
F000
F000
F000
F000
F000
F000
F000
F000
F000
F800
7C00
7F80
3FC0
1FC0
0780
ENDCHAR
STARTCHAR 0029
ENCODING 41
SWIDTH 480 0
DWIDTH 20 0
BBX 10 36 3 -4
BITMAP
7800
FE00
FF00
7F80
0F80
07C0
03C0
03C0
03C0
03C0
03C0
03C0
03C0
03C0
03C0
03C0
03C0
03C0
03C0
03C0
03C0
03C0
03C0
03C0
03C0
03C0
03C0
03C0
03C0
03C0
07C0
0F80
7F80
FF00
FE00
7800
ENDCHAR
STARTCHAR 002A
ENCODING 42
SWIDTH 480 0
DWIDTH 20 0
BBX 14 16 1 12
BITMAP
0300
0780
0780
E79C
FFFC
FFFC
FFFC
3FF0
3FF0
FFFC
FFFC
FFFC
E79C
0780
0780
0300
ENDCHAR
STARTCHAR 002B
ENCODING 43
SWIDTH 480 0
DWIDTH 20 0
BBX 16 16 0 6
BITMAP
0180
03C0
03C0
03C0
03C0
03C0
7FFE
FFFF
FFFF
7FFE
03C0
03C0
03C0
03C0
03C0
0180
ENDCHAR
STARTCHAR 002C
ENCODING 44
SWIDTH 480 0
DWIDTH 20 0
BBX 4 8 6 -4
BITMAP
60
F0
F0
F0
F0
F0
F0
60
ENDCHAR
STARTCHAR 002D
ENCODING 45
SWIDTH 480 0
DWIDTH 20 0
BBX 12 4 2 12
BITMAP
7FE0
FFF0
FFF0
7FE0
ENDCHAR
STARTCHAR 002E
ENCODING 46
SWIDTH 480 0
DWIDTH 20 0
BBX 6 6 5 0
BITMAP
78
FC
FC
FC
FC
78
ENDCHAR
STARTCHAR 002F
ENCODING 47
SWIDTH 504 0
DWIDTH 21 0
BBX 16 28 0 0
BITMAP
0007
000F
000F
001F
001E
003E
003C
007C
0078
00F8
00F0
01F0
01E0
03E0
03C0
07C0
0780
0F80
0F00
1F00
1E00
3E00
3C00
7C00
7800
F800
F000
6000
ENDCHAR
STARTCHAR 0030
ENCODING 48
SWIDTH 480 0
DWIDTH 20 0
BBX 16 28 0 0
BITMAP
07E0
1FF8
3FFC
7FFE
7C3E
F81F
F00F
F00F
F00F
F00F
F00F
F00F
F18F
F3CF
F3CF
F18F
F00F
F00F
F00F
F00F
F00F
F00F
F81F
7C3E
7FFE
3FFC
1FF8
07E0
ENDCHAR
STARTCHAR 0031
ENCODING 49
SWIDTH 480 0
DWIDTH 20 0
BBX 16 28 0 0
BITMAP
7F80
FFC0
FFC0
7FC0
03C0
03C0
03C0
03C0
03C0
03C0
03C0
03C0
03C0
03C0
03C0
03C0
03C0
03C0
03C0
03C0
03C0
03C0
03C0
03C0
7FFE
FFFF
FFFF
7FFE
ENDCHAR
STARTCHAR 0032
ENCODING 50
SWIDTH 504 0
DWIDTH 21 0
BBX 16 28 1 0
BITMAP
0FC0
3FF8
FFFC
FFFE
F83E
601F
000F
000F
000F
000F
001F
003E
07FE
1FFC
3FF8
7FE0
7C00
F800
F000
F000
F006
F00F
F00F
F00F
FFFF
FFFF
FFFF
7FFE
ENDCHAR
STARTCHAR 0033
ENCODING 51
SWIDTH 504 0
DWIDTH 21 0
BBX 16 28 1 0
BITMAP
0FC0
3FF8
FFFC
FFFE
F83E
601F
000F
000F
000F
000F
001F
003E
07FE
0FFC
0FFC
07FE
003E
001F
000F
000F
000F
000F
601F
F03E
FFFE
7FFC
3FF8
0FC0
ENDCHAR
STARTCHAR 0034
ENCODING 52
SWIDTH 480 0
DWIDTH 20 0
BBX 16 28 0 0
BITMAP
6006
F00F
F00F
F00F
F00F
F00F
F00F
F00F
F00F
F00F
F00F
F00F
FFFF
FFFF
FFFF
7FFF
000F
000F
000F
000F
000F
000F
000F
000F
000F
000F
000F
0006
ENDCHAR
STARTCHAR 0035
ENCODING 53
SWIDTH 504 0
DWIDTH 21 0
BBX 16 28 1 0
BITMAP
7FFE
FFFF
FFFF
FFFF
F00F
F00F
F00F
F006
F000
F000
F000
F000
FFE0
FFF8
FFFC
7FFE
003E
001F
000F
000F
000F
000F
601F
F03E
FFFE
7FFC
3FF8
0FC0
ENDCHAR
STARTCHAR 0036
ENCODING 54
SWIDTH 480 0
DWIDTH 20 0
BBX 16 28 0 0
BITMAP
03F0
1FFC
3FFF
7FFF
7C0F
F806
F000
F000
F000
F000
F7E0
FFF8
FFFC
FFFE
FC3E
F81F
F00F
F00F
F00F
F00F
F00F
F00F
F81F
7C3E
7FFE
3FFC
1FF8
07E0
ENDCHAR
STARTCHAR 0037
ENCODING 55
SWIDTH 480 0
DWIDTH 20 0
BBX 16 28 0 0
BITMAP
7FFE
FFFF
FFFF
7FFE
003E
003E
007C
007C
00F8
00F8
01F0
01F0
03E0
03E0
07C0
07C0
0F80
0F80
1F00
1F00
3E00
3E00
7C00
7C00
7800
F800
F000
6000
ENDCHAR
STARTCHAR 0038
ENCODING 56
SWIDTH 480 0
DWIDTH 20 0
BBX 16 28 0 0
BITMAP
07E0
1FF8
3FFC
7FFE
7C3E
F81F
F00F
F00F
F00F
F00F
F81F
7C3E
7FFE
3FFC
3FFC
7FFE
7C3E
F81F
F00F
F00F
F00F
F00F
F81F
7C3E
7FFE
3FFC
1FF8
07E0
ENDCHAR
STARTCHAR 0039
ENCODING 57
SWIDTH 480 0
DWIDTH 20 0
BBX 16 28 0 0
BITMAP
07E0
1FF8
3FFC
7FFE
7C3E
F81F
F00F
F00F
F00F
F00F
F00F
F00F
F81F
7C3F
7FFF
3FFF
1FFF
07EF
000F
000F
000F
000F
601F
F03E
FFFE
7FFC
3FF8
0FC0
ENDCHAR
STARTCHAR 003A
ENCODING 58
SWIDTH 480 0
DWIDTH 20 0
BBX 6 20 5 0
BITMAP
78
FC
FC
FC
FC
78
00
00
00
00
00
00
00
00
78
FC
FC
FC
FC
78
ENDCHAR
STARTCHAR 003B
ENCODING 59
SWIDTH 480 0
DWIDTH 20 0
BBX 6 25 5 -4
BITMAP
78
FC
FC
FC
FC
78
00
00
00
00
00
00
00
00
00
00
00
18
3C
3C
7C
78
F8
F0
60
ENDCHAR
STARTCHAR 003C
ENCODING 60
SWIDTH 480 0
DWIDTH 20 0
BBX 16 16 0 5
BITMAP
000F
003F
00FF
07FE
1FF8
7FE0
FF00
FC00
FC00
FF00
7FE0
1FF8
07FE
00FF
003F
000F
ENDCHAR
STARTCHAR 003D
ENCODING 61
SWIDTH 480 0
DWIDTH 20 0
BBX 16 12 0 8
BITMAP
7FFE
FFFF
FFFF
7FFE
0000
0000
0000
0000
7FFE
FFFF
FFFF
7FFE
ENDCHAR
STARTCHAR 003E
ENCODING 62
SWIDTH 480 0
DWIDTH 20 0
BBX 16 16 0 5
BITMAP
F000
FC00
FF00
7FE0
1FF8
07FE
00FF
003F
003F
00FF
07FE
1FF8
7FE0
FF00
FC00
F000
ENDCHAR
STARTCHAR 003F
ENCODING 63
SWIDTH 504 0
DWIDTH 21 0
BBX 16 28 1 0
BITMAP
0FC0
3FF8
FFFC
FFFE
F83E
601F
000F
000F
000F
000F
001F
003E
01FE
03FC
03F8
03E0
03C0
03C0
03C0
0180
0000
0000
0000
0000
0180
03C0
03C0
0180
ENDCHAR
STARTCHAR 0040
ENCODING 64
SWIDTH 480 0
DWIDTH 20 0
BBX 16 28 0 0
BITMAP
07E0
1FF8
3FFC
7FFE
7C3E
F81F
F00F
F00F
F03F
F0FF
F1FF
F1FF
F3EF
F3CF
F3CF
F3EF
F1FF
F1FF
F0FF
F03E
F000
F000
F806
7C0F
7FFF
3FFF
1FFC
03F0
ENDCHAR
STARTCHAR 0041
ENCODING 65
SWIDTH 480 0
DWIDTH 20 0
BBX 17 28 0 0
BITMAP
03C000
07E000
07E000
07E000
07F000
0FF000
0FF000
0FF000
0FF800
1F7800
1E7800
1E7800
1E7C00
3E3C00
3C3C00
3C3C00
3C3E00
3C1E00
781E00
781E00
7FFE00
7FFF00
FFFF00
FFFF00
F00F00
F00F80
F00780
E00700
ENDCHAR
STARTCHAR 0042
ENCODING 66
SWIDTH 480 0
DWIDTH 20 0
BBX 16 28 0 0
BITMAP
7FE0
FFF8
FFFC
FFFE
F03E
F01F
F00F
F00F
F00F
F00F
F01F
F03E
FFFE
FFFC
FFFC
FFFE
F03E
F01F
F00F
F00F
F00F
F00F
F01F
F03E
FFFE
FFFC
FFF8
7FE0
ENDCHAR
STARTCHAR 0043
ENCODING 67
SWIDTH 480 0
DWIDTH 20 0
BBX 16 28 0 0
BITMAP
03F0
1FFC
3FFF
7FFF
7C0F
F806
F000
F000
F000
F000
F000
F000
F000
F000
F000
F000
F000
F000
F000
F000
F000
F000
F806
7C0F
7FFF
3FFF
1FFC
03F0
ENDCHAR
STARTCHAR 0044
ENCODING 68
SWIDTH 480 0
DWIDTH 20 0
BBX 16 28 0 0
BITMAP
7FE0
FFF8
FFFC
FFFE
F03E
F01F
F00F
F00F
F00F
F00F
F00F
F00F
F00F
F00F
F00F
F00F
F00F
F00F
F00F
F00F
F00F
F00F
F01F
F03E
FFFE
FFFC
FFF8
7FE0
ENDCHAR
STARTCHAR 0045
ENCODING 69
SWIDTH 504 0
DWIDTH 21 0
BBX 16 28 0 0
BITMAP
7FFF
FFFF
FFFF
FFFF
F000
F000
F000
F000
F000
F000
F000
F000
FFFC
FFFC
FFFC
FFFC
F000
F000
F000
F000
F000
F000
F000
F000
FFFF
FFFF
FFFF
7FFF
ENDCHAR
STARTCHAR 0046
ENCODING 70
SWIDTH 504 0
DWIDTH 21 0
BBX 16 28 0 0
BITMAP
7FFF
FFFF
FFFF
FFFF
F000
F000
F000
F000
F000
F000
F000
F000
FFFC
FFFC
FFFC
FFFC
F000
F000
F000
F000
F000
F000
F000
F000
F000
F000
F000
6000
ENDCHAR
STARTCHAR 0047
ENCODING 71
SWIDTH 480 0
DWIDTH 20 0
BBX 16 28 0 0
BITMAP
03F0
1FFC
3FFF
7FFF
7C0F
F806
F000
F000
F000
F000
F000
F000
F07E
F0FF
F0FF
F07F
F00F
F00F
F00F
F00F
F00F
F00F
F81F
7C3E
7FFE
3FFC
1FF8
07E0
ENDCHAR
STARTCHAR 0048
ENCODING 72
SWIDTH 480 0
DWIDTH 20 0
BBX 16 28 0 0
BITMAP
6006
F00F
F00F
F00F
F00F
F00F
F00F
F00F
F00F
F00F
F00F
F00F
FFFF
FFFF
FFFF
FFFF
F00F
F00F
F00F
F00F
F00F
F00F
F00F
F00F
F00F
F00F
F00F
6006
ENDCHAR
STARTCHAR 0049
ENCODING 73
SWIDTH 480 0
DWIDTH 20 0
BBX 16 28 0 0
BITMAP
7FFE
FFFF
FFFF
7FFE
03C0
03C0
03C0
03C0
03C0
03C0
03C0
03C0
03C0
03C0
03C0
03C0
03C0
03C0
03C0
03C0
03C0
03C0
03C0
03C0
7FFE
FFFF
FFFF
7FFE
ENDCHAR
STARTCHAR 004A
ENCODING 74
SWIDTH 504 0
DWIDTH 21 0
BBX 16 28 1 0
BITMAP
0006
000F
000F
000F
000F
000F
000F
000F
000F
000F
000F
000F
000F
000F
000F
000F
000F
000F
000F
000F
000F
000F
601F
F03E
FFFE
7FFC
3FF8
0FC0
ENDCHAR
STARTCHAR 004B
ENCODING 75
SWIDTH 504 0
DWIDTH 21 0
BBX 16 28 0 0
BITMAP
6007
F00F
F00F
F01F
F01E
F03E
F03C
F07C
F078
F0F8
F0F0
F1F0
FFE0
FFE0
FFE0
FFE0
F1F0
F0F0
F0F8
F078
F07C
F03C
F03E
F01E
F01F
F00F
F00F
6007
ENDCHAR
STARTCHAR 004C
ENCODING 76
SWIDTH 504 0
DWIDTH 21 0
BBX 16 28 0 0
BITMAP
6000
F000
F000
F000
F000
F000
F000
F000
F000
F000
F000
F000
F000
F000
F000
F000
F000
F000
F000
F000
F000
F000
F000
F000
FFFF
FFFF
FFFF
7FFF
ENDCHAR
STARTCHAR 004D
ENCODING 77
SWIDTH 480 0
DWIDTH 20 0
BBX 16 28 0 0
BITMAP
6006
F00F
F80F
F81F
FC1F
FC3F
FE3F
FE7F
FF7F
FFFF
FFFF
F7FF
F7EF
F3EF
F3CF
F1CF
F18F
F08F
F00F
F00F
F00F
F00F
F00F
F00F
F00F
F00F
F00F
6006
ENDCHAR
STARTCHAR 004E
ENCODING 78
SWIDTH 480 0
DWIDTH 20 0
BBX 16 28 0 0
BITMAP
6006
F00F
F80F
F80F
FC0F
FC0F
FE0F
FE0F
FF0F
FF0F
FF8F
F78F
F7CF
F3CF
F3EF
F1EF
F1FF
F0FF
F0FF
F07F
F07F
F03F
F03F
F01F
F01F
F00F
F00F
6006
ENDCHAR
STARTCHAR 004F
ENCODING 79
SWIDTH 480 0
DWIDTH 20 0
BBX 16 28 0 0
BITMAP
07E0
1FF8
3FFC
7FFE
7C3E
F81F
F00F
F00F
F00F
F00F
F00F
F00F
F00F
F00F
F00F
F00F
F00F
F00F
F00F
F00F
F00F
F00F
F81F
7C3E
7FFE
3FFC
1FF8
07E0
ENDCHAR
STARTCHAR 0050
ENCODING 80
SWIDTH 480 0
DWIDTH 20 0
BBX 16 28 0 0
BITMAP
7FE0
FFF8
FFFC
FFFE
F03E
F01F
F00F
F00F
F00F
F00F
F01F
F03E
FFFE
FFFC
FFF8
FFE0
F000
F000
F000
F000
F000
F000
F000
F000
F000
F000
F000
6000
ENDCHAR
STARTCHAR 0051
ENCODING 81
SWIDTH 480 0
DWIDTH 20 0
BBX 16 28 0 0
BITMAP
07E0
1FF8
3FFC
7FFE
7C3E
F81F
F00F
F00F
F00F
F00F
F00F
F00F
F00F
F00F
F00F
F00F
F00F
F00F
F00F
F1EF
F1FF
F1FF
F8FF
7C7E
7FFE
3FFF
1FFF
07E6
ENDCHAR
STARTCHAR 0052
ENCODING 82
SWIDTH 480 0
DWIDTH 20 0
BBX 16 28 0 0
BITMAP
7FE0
FFF8
FFFC
FFFE
F03E
F01F
F00F
F00F
F00F
F00F
F01F
F03E
FFFE
FFFC
FFF8
FFE0
F1F0
F0F0
F0F8
F078
F07C
F03C
F03E
F01E
F01F
F00F
F00F
6006
ENDCHAR
STARTCHAR 0053
ENCODING 83
SWIDTH 504 0
DWIDTH 21 0
BBX 16 28 1 0
BITMAP
03F0
1FFC
3FFF
7FFF
7C0F
F806
F000
F000
F000
F000
F800
7C00
7FE0
3FF8
1FFC
07FE
003E
001F
000F
000F
000F
000F
601F
F03E
FFFE
7FFC
3FF8
0FC0
ENDCHAR
STARTCHAR 0054
ENCODING 84
SWIDTH 480 0
DWIDTH 20 0
BBX 16 28 0 0
BITMAP
7FFE
FFFF
FFFF
7FFE
03C0
03C0
03C0
03C0
03C0
03C0
03C0
03C0
03C0
03C0
03C0
03C0
03C0
03C0
03C0
03C0
03C0
03C0
03C0
03C0
03C0
03C0
03C0
0180
ENDCHAR
STARTCHAR 0055
ENCODING 85
SWIDTH 480 0
DWIDTH 20 0
BBX 16 28 0 0
BITMAP
6006
F00F
F00F
F00F
F00F
F00F
F00F
F00F
F00F
F00F
F00F
F00F
F00F
F00F
F00F
F00F
F00F
F00F
F00F
F00F
F00F
F00F
F81F
7C3E
7FFE
3FFC
1FF8
07E0
ENDCHAR
STARTCHAR 0056
ENCODING 86
SWIDTH 480 0
DWIDTH 20 0
BBX 17 28 0 0
BITMAP
E00700
F00780
F00F80
F00F00
F00F00
F80F00
781F00
781E00
781E00
781E00
3C1E00
3C3E00
3C3C00
3C3C00
3E3C00
1E7C00
1E7800
1E7800
1F7800
0FF800
0FF000
0FF000
0FF000
07F000
07E000
07E000
07E000
03C000
ENDCHAR
STARTCHAR 0057
ENCODING 87
SWIDTH 480 0
DWIDTH 20 0
BBX 16 28 0 0
BITMAP
6006
F00F
F00F
F00F
F00F
F00F
F18F
F3CF
F3CF
F3CF
F3CF
F3CF
F3CF
F3CF
F3CF
F3CF
F3CF
F3CF
F3CF
F3CF
F3CF
F3CF
F3CF
F3CF
FFFF
7FFE
7FFE
1E78
ENDCHAR
STARTCHAR 0058
ENCODING 88
SWIDTH 480 0
DWIDTH 20 0
BBX 16 28 0 0
BITMAP
6006
F00F
F81F
781E
7C3E
3C3E
3E7C
1E7C
1FF8
0FF8
0FF0
07F0
07E0
03E0
03C0
07E0
07E0
0FF0
0FF0
1E78
1E78
3C3C
3C3C
781E
781E
F00F
F00F
6006
ENDCHAR
STARTCHAR 0059
ENCODING 89
SWIDTH 480 0
DWIDTH 20 0
BBX 16 28 0 0
BITMAP
6006
F00F
F81F
781F
7C3E
3C3E
3E3C
1E7C
1F78
0FF8
0FF0
07F0
07E0
03E0
03C0
03C0
03C0
03C0
03C0
03C0
03C0
03C0
03C0
03C0
03C0
03C0
03C0
0180
ENDCHAR
STARTCHAR 005A
ENCODING 90
SWIDTH 480 0
DWIDTH 20 0
BBX 16 28 0 0
BITMAP
7FFE
FFFF
FFFF
7FFE
003E
003E
007C
007C
00F8
00F8
01F0
01F0
03E0
03E0
07C0
07C0
0F80
0F80
1F00
1F00
3E00
3E00
7C00
7C00
7FFE
FFFF
FFFF
7FFE
ENDCHAR
STARTCHAR 005B
ENCODING 91
SWIDTH 480 0
DWIDTH 20 0
BBX 10 36 2 -4
BITMAP
7F80
FFC0
FFC0
FF80
F000
F000
F000
F000
F000
F000
F000
F000
F000
F000
F000
F000
F000
F000
F000
F000
F000
F000
F000
F000
F000
F000
F000
F000
F000
F000
F000
F000
FF80
FFC0
FFC0
7F80
ENDCHAR
STARTCHAR 005C
ENCODING 92
SWIDTH 504 0
DWIDTH 21 0
BBX 16 28 0 0
BITMAP
6000
F000
F800
7800
7C00
3C00
3E00
1E00
1F00
0F00
0F80
0780
07C0
03C0
03E0
01E0
01F0
00F0
00F8
0078
007C
003C
003E
001E
001F
000F
000F
0007
ENDCHAR
STARTCHAR 005D
ENCODING 93
SWIDTH 480 0
DWIDTH 20 0
BBX 10 36 2 -4
BITMAP
7F80
FFC0
FFC0
7FC0
03C0
03C0
03C0
03C0
03C0
03C0
03C0
03C0
03C0
03C0
03C0
03C0
03C0
03C0
03C0
03C0
03C0
03C0
03C0
03C0
03C0
03C0
03C0
03C0
03C0
03C0
03C0
03C0
7FC0
FFC0
FFC0
7F80
ENDCHAR
STARTCHAR 005E
ENCODING 94
SWIDTH 480 0
DWIDTH 20 0
BBX 13 11 2 17
BITMAP
0700
0F00
1F80
1FC0
3FC0
7FE0
79F0
F9F0
F0F8
F078
E030
ENDCHAR
STARTCHAR 005F
ENCODING 95
SWIDTH 480 0
DWIDTH 20 0
BBX 16 4 0 0
BITMAP
7FFE
FFFF
FFFF
7FFE
ENDCHAR
STARTCHAR 0060
ENCODING 96
SWIDTH 480 0
DWIDTH 20 0
BBX 6 8 5 20
BITMAP
60
F0
F8
F8
7C
3C
3C
08
ENDCHAR
STARTCHAR 0061
ENCODING 97
SWIDTH 480 0
DWIDTH 20 0
BBX 16 20 0 0
BITMAP
07E6
1FFF
3FFF
7FFF
7C3F
F81F
F00F
F00F
F00F
F00F
F00F
F00F
F00F
F00F
F81F
7C3F
7FFF
3FFF
1FFF
07E6
ENDCHAR
STARTCHAR 0062
ENCODING 98
SWIDTH 480 0
DWIDTH 20 0
BBX 16 28 0 0
BITMAP
6000
F000
F000
F000
F000
F000
F000
F000
F7E0
FFF8
FFFC
FFFE
FC3E
F81F
F00F
F00F
F00F
F00F
F00F
F00F
F00F
F00F
F81F
FC3E
FFFE
FFFC
FFF8
67E0
ENDCHAR
STARTCHAR 0063
ENCODING 99
SWIDTH 480 0
DWIDTH 20 0
BBX 16 20 0 0
BITMAP
03F0
1FFC
3FFF
7FFF
7C0F
F806
F000
F000
F000
F000
F000
F000
F000
F000
F806
7C0F
7FFF
3FFF
1FFC
03F0
ENDCHAR
STARTCHAR 0064
ENCODING 100
SWIDTH 480 0
DWIDTH 20 0
BBX 16 28 0 0
BITMAP
0006
000F
000F
000F
000F
000F
000F
000F
07EF
1FFF
3FFF
7FFF
7C3F
F81F
F00F
F00F
F00F
F00F
F00F
F00F
F00F
F00F
F81F
7C3F
7FFF
3FFF
1FFF
07E6
ENDCHAR
STARTCHAR 0065
ENCODING 101
SWIDTH 480 0
DWIDTH 20 0
BBX 16 20 0 0
BITMAP
07E0
1FF8
3FFC
7FFE
7C3E
F81F
F00F
F00F
FFFF
FFFF
FFFF
FFFE
F000
F000
F818
7C3C
7FFC
3FFC
1FF8
07E0
ENDCHAR
STARTCHAR 0066
ENCODING 102
SWIDTH 480 0
DWIDTH 20 0
BBX 16 28 0 0
BITMAP
007E
01FF
03FF
07FE
07C0
0F80
0F00
0F00
7FFE
FFFF
FFFF
7FFE
0F00
0F00
0F00
0F00
0F00
0F00
0F00
0F00
0F00
0F00
0F00
0F00
0F00
0F00
0F00
0600
ENDCHAR
STARTCHAR 0067
ENCODING 103
SWIDTH 480 0
DWIDTH 20 0
BBX 16 28 0 -8
BITMAP
07E6
1FFF
3FFF
7FFF
7C3F
F81F
F00F
F00F
F00F
F00F
F00F
F00F
F00F
F00F
F81F
7C3F
7FFF
3FFF
1FFF
07EF
000F
000F
601F
F03E
FFFE
7FFC
3FF8
0FC0
ENDCHAR
STARTCHAR 0068
ENCODING 104
SWIDTH 480 0
DWIDTH 20 0
BBX 16 28 0 0
BITMAP
6000
F000
F000
F000
F000
F000
F000
F000
F7E0
FFF8
FFFC
FFFE
FC3E
F81F
F00F
F00F
F00F
F00F
F00F
F00F
F00F
F00F
F00F
F00F
F00F
F00F
F00F
6006
ENDCHAR
STARTCHAR 0069
ENCODING 105
SWIDTH 480 0
DWIDTH 20 0
BBX 16 28 0 0
BITMAP
0180
03C0
03C0
0180
0000
0000
0000
0000
7F80
FFC0
FFC0
7FC0
03C0
03C0
03C0
03C0
03C0
03C0
03C0
03C0
03C0
03C0
03C0
03C0
7FFE
FFFF
FFFF
7FFE
ENDCHAR
STARTCHAR 006A
ENCODING 106
SWIDTH 504 0
DWIDTH 21 0
BBX 16 36 1 -8
BITMAP
0006
000F
000F
0006
0000
0000
0000
0000
01FE
03FF
03FF
01FF
000F
000F
000F
000F
000F
000F
000F
000F
000F
000F
000F
000F
000F
000F
000F
000F
000F
000F
601F
F03E
FFFE
7FFC
3FF8
0FC0
ENDCHAR
STARTCHAR 006B
ENCODING 107
SWIDTH 480 0
DWIDTH 20 0
BBX 16 28 0 0
BITMAP
6000
F000
F000
F000
F000
F000
F000
F000
F007
F00F
F01F
F03E
F03E
F07C
F0F8
F1F0
FFF0
FFE0
FFE0
FFF0
F1F8
F0F8
F07C
F03E
F03F
F01F
F00F
6006
ENDCHAR
STARTCHAR 006C
ENCODING 108
SWIDTH 480 0
DWIDTH 20 0
BBX 16 28 0 0
BITMAP
7F80
FFC0
FFC0
7FC0
03C0
03C0
03C0
03C0
03C0
03C0
03C0
03C0
03C0
03C0
03C0
03C0
03C0
03C0
03C0
03C0
03C0
03C0
03C0
03C0
7FFE
FFFF
FFFF
7FFE
ENDCHAR
STARTCHAR 006D
ENCODING 109
SWIDTH 480 0
DWIDTH 20 0
BBX 16 20 0 0
BITMAP
7E78
FFFE
FFFE
FFFF
F3CF
F3CF
F3CF
F3CF
F3CF
F3CF
F3CF
F3CF
F3CF
F3CF
F3CF
F3CF
F3CF
F3CF
F3CF
6186
ENDCHAR
STARTCHAR 006E
ENCODING 110
SWIDTH 480 0
DWIDTH 20 0
BBX 16 20 0 0
BITMAP
67E0
FFF8
FFFC
FFFE
FC3E
F81F
F00F
F00F
F00F
F00F
F00F
F00F
F00F
F00F
F00F
F00F
F00F
F00F
F00F
6006
ENDCHAR
STARTCHAR 006F
ENCODING 111
SWIDTH 480 0
DWIDTH 20 0
BBX 16 20 0 0
BITMAP
07E0
1FF8
3FFC
7FFE
7C3E
F81F
F00F
F00F
F00F
F00F
F00F
F00F
F00F
F00F
F81F
7C3E
7FFE
3FFC
1FF8
07E0
ENDCHAR
STARTCHAR 0070
ENCODING 112
SWIDTH 480 0
DWIDTH 20 0
BBX 16 28 0 -8
BITMAP
67E0
FFF8
FFFC
FFFE
FC3E
F81F
F00F
F00F
F00F
F00F
F00F
F00F
F00F
F00F
F81F
FC3E
FFFE
FFFC
FFF8
F7E0
F000
F000
F000
F000
F000
F000
F000
6000
ENDCHAR
STARTCHAR 0071
ENCODING 113
SWIDTH 480 0
DWIDTH 20 0
BBX 16 28 0 -8
BITMAP
07E6
1FFF
3FFF
7FFF
7C3F
F81F
F00F
F00F
F00F
F00F
F00F
F00F
F00F
F00F
F81F
7C3F
7FFF
3FFF
1FFF
07EF
000F
000F
000F
000F
000F
000F
000F
0006
ENDCHAR
STARTCHAR 0072
ENCODING 114
SWIDTH 480 0
DWIDTH 20 0
BBX 16 20 0 0
BITMAP
63F8
FFFE
FFFF
FFFF
FC0F
F806
F000
F000
F000
F000
F000
F000
F000
F000
F000
F000
F000
F000
F000
6000
ENDCHAR
STARTCHAR 0073
ENCODING 115
SWIDTH 504 0
DWIDTH 21 0
BBX 16 20 1 0
BITMAP
07F0
1FFC
3FFF
7FFF
FC0F
F006
F000
F800
7FF0
7FFC
3FFE
0FFE
001F
000F
600F
F03F
FFFE
7FFC
3FF8
0FE0
ENDCHAR
STARTCHAR 0074
ENCODING 116
SWIDTH 480 0
DWIDTH 20 0
BBX 16 28 0 0
BITMAP
0600
0F00
0F00
0F00
0F00
0F00
0F00
0F00
7FFE
FFFF
FFFF
7FFE
0F00
0F00
0F00
0F00
0F00
0F00
0F00
0F00
0F00
0F00
0F80
07C0
07FE
03FF
01FF
007E
ENDCHAR
STARTCHAR 0075
ENCODING 117
SWIDTH 480 0
DWIDTH 20 0
BBX 16 20 0 0
BITMAP
6006
F00F
F00F
F00F
F00F
F00F
F00F
F00F
F00F
F00F
F00F
F00F
F00F
F00F
F81F
7C3F
7FFF
3FFF
1FFF
07E6
ENDCHAR
STARTCHAR 0076
ENCODING 118
SWIDTH 480 0
DWIDTH 20 0
BBX 17 20 0 0
BITMAP
E00700
F00780
F00F80
F00F00
F80F00
781F00
781E00
7C3E00
3C3C00
3E3C00
1E7C00
1E7800
1F7800
0FF800
0FF000
0FF000
07F000
07E000
07E000
03C000
ENDCHAR
STARTCHAR 0077
ENCODING 119
SWIDTH 480 0
DWIDTH 20 0
BBX 16 20 0 0
BITMAP
6186
F3CF
F3CF
F3CF
F3CF
F3CF
F3CF
F3CF
F3CF
F3CF
F3CF
F3CF
F3CF
F3CF
F3CF
F3CF
FFFF
7FFE
7FFE
1E78
ENDCHAR
STARTCHAR 0078
ENCODING 120
SWIDTH 480 0
DWIDTH 20 0
BBX 16 20 0 0
BITMAP
6007
F00F
F81F
7C3E
7E3E
3E7C
1FF8
0FF0
0FF0
07E0
07E0
0FF0
0FF8
1FF8
3E7C
7C3E
7C3F
F81F
F00F
6006
ENDCHAR
STARTCHAR 0079
ENCODING 121
SWIDTH 504 0
DWIDTH 21 0
BBX 16 28 1 -8
BITMAP
6006
F00F
F00F
F00F
F00F
F00F
F00F
F00F
F00F
F00F
F00F
F00F
F00F
F00F
F81F
7C3F
7FFF
3FFF
1FFF
07EF
000F
000F
601F
F03E
FFFE
7FFC
3FF8
0FC0
ENDCHAR
STARTCHAR 007A
ENCODING 122
SWIDTH 504 0
DWIDTH 21 0
BBX 16 20 0 0
BITMAP
7FFF
FFFF
FFFF
7FFF
003E
007C
00F8
01F8
01F0
03E0
07C0
0FC0
0F80
1F00
3E00
7E00
7FFF
FFFF
FFFF
7FFF
ENDCHAR
STARTCHAR 007B
ENCODING 123
SWIDTH 480 0
DWIDTH 20 0
BBX 16 36 0 -4
BITMAP
001E
007F
00FF
01FE
01F0
03E0
03C0
03C0
03C0
03C0
03C0
03C0
03C0
03C0
07C0
0F80
7F80
FF00
FF00
7F80
0F80
07C0
03C0
03C0
03C0
03C0
03C0
03C0
03C0
03C0
03E0
01F0
01FE
00FF
007F
001E
ENDCHAR
STARTCHAR 007C
ENCODING 124
SWIDTH 480 0
DWIDTH 20 0
BBX 4 36 6 -4
BITMAP
60
F0
F0
F0
F0
F0
F0
F0
F0
F0
F0
F0
F0
F0
F0
F0
F0
F0
F0
F0
F0
F0
F0
F0
F0
F0
F0
F0
F0
F0
F0
F0
F0
F0
F0
60
ENDCHAR
STARTCHAR 007D
ENCODING 125
SWIDTH 480 0
DWIDTH 20 0
BBX 16 36 0 -4
BITMAP
7800
FE00
FF00
7F80
0F80
07C0
03C0
03C0
03C0
03C0
03C0
03C0
03C0
03C0
03E0
01F0
01FE
00FF
00FF
01FE
01F0
03E0
03C0
03C0
03C0
03C0
03C0
03C0
03C0
03C0
07C0
0F80
7F80
FF00
FE00
7800
ENDCHAR
STARTCHAR 007E
ENCODING 126
SWIDTH 480 0
DWIDTH 20 0
BBX 16 6 0 11
BITMAP
1C00
7F0E
FFFF
FFFF
71FE
0078
ENDCHAR
STARTCHAR 00A0
ENCODING 160
SWIDTH 480 0
DWIDTH 20 0
BBX 0 0 0 0
BITMAP
ENDCHAR
STARTCHAR 00A1
ENCODING 161
SWIDTH 480 0
DWIDTH 20 0
BBX 4 28 6 -8
BITMAP
60
F0
F0
60
00
00
00
00
60
F0
F0
F0
F0
F0
F0
F0
F0
F0
F0
F0
F0
F0
F0
F0
F0
F0
F0
60
ENDCHAR
STARTCHAR 00A2
ENCODING 162
SWIDTH 480 0
DWIDTH 20 0
BBX 16 28 0 -4
BITMAP
0180
03C0
03C0
03C0
07F0
1FFC
3FFF
7FFF
7FCF
FBC6
F3C0
F3C0
F3C0
F3C0
F3C0
F3C0
F3C0
F3C0
FBC6
7FCF
7FFF
3FFF
1FFC
07F0
03C0
03C0
03C0
0180
ENDCHAR
STARTCHAR 00A3
ENCODING 163
SWIDTH 480 0
DWIDTH 20 0
BBX 16 28 0 0
BITMAP
01F8
07FC
0FFF
1FFF
1F0F
3E06
3C00
3C00
3C00
7FFC
FFFE
FFFE
7FFC
3C00
3C00
7FFC
FFFE
FFFE
7FFC
3C00
3C00
3C00
3C00
3C00
7FFE
FFFF
FFFF
7FFE
ENDCHAR
STARTCHAR 00A5
ENCODING 165
SWIDTH 480 0
DWIDTH 20 0
BBX 16 28 0 0
BITMAP
6006
F00F
F81F
781F
7C3E
3C3E
3E3C
1E7C
1F78
0FF8
0FF0
07F0
07E0
03E0
7FFE
FFFF
FFFF
7FFE
03C0
03C0
7FFE
FFFF
FFFF
7FFE
03C0
03C0
03C0
0180
ENDCHAR
STARTCHAR 00A6
ENCODING 166
SWIDTH 480 0
DWIDTH 20 0
BBX 4 36 6 -4
BITMAP
60
F0
F0
F0
F0
F0
F0
F0
F0
F0
F0
F0
F0
F0
F0
F0
F0
F0
F0
F0
F0
F0
F0
F0
F0
F0
F0
F0
F0
F0
F0
F0
F0
F0
F0
60
ENDCHAR
STARTCHAR 00A7
ENCODING 167
SWIDTH 504 0
DWIDTH 21 0
BBX 16 28 1 0
BITMAP
07F0
1FFC
3FFF
7FFF
FC0F
F006
F000
F800
7FF0
7FFC
3FFE
7FFE
FC1F
F00F
F00F
F83F
7FFE
7FFC
3FFE
0FFE
001F
000F
600F
F03F
FFFE
7FFC
3FF8
0FE0
ENDCHAR
STARTCHAR 00A8
ENCODING 168
SWIDTH 480 0
DWIDTH 20 0
BBX 12 4 2 24
BITMAP
6060
F0F0
F0F0
6060
ENDCHAR
STARTCHAR 00A9
ENCODING 169
SWIDTH 480 0
DWIDTH 20 0
BBX 16 28 0 0
BITMAP
07E0
1FF8
3FFC
7FFE
7C3E
F81F
F3EF
F7FF
FFFF
FFFF
FE3F
FC1F
FC0F
FC0F
FC0F
FC0F
FC3F
FE3F
FFFF
FFFF
F7FF
F3CF
F81F
7C3E
7FFE
3FFC
1FF8
07E0
ENDCHAR
STARTCHAR 00AA
ENCODING 170
SWIDTH 480 0
DWIDTH 20 0
BBX 16 20 0 8
BITMAP
07E6
1FFF
3FFF
7FFF
7C3F
F81F
F00F
F00F
F00F
F00F
F00F
F00F
F00F
F00F
F81F
7C3F
7FFF
3FFF
1FFF
07E6
ENDCHAR
STARTCHAR 00AD
ENCODING 173
SWIDTH 480 0
DWIDTH 20 0
BBX 12 4 2 12
BITMAP
7FE0
FFF0
FFF0
7FE0
ENDCHAR
STARTCHAR 00AF
ENCODING 175
SWIDTH 480 0
DWIDTH 20 0
BBX 16 4 0 24
BITMAP
7FFE
FFFF
FFFF
7FFE
ENDCHAR
STARTCHAR 00B0
ENCODING 176
SWIDTH 480 0
DWIDTH 20 0
BBX 10 10 3 18
BITMAP
1E00
7F80
7F80
F3C0
E1C0
E1C0
F3C0
7F80
7F80
1E00
ENDCHAR
STARTCHAR 00B1
ENCODING 177
SWIDTH 480 0
DWIDTH 20 0
BBX 16 18 0 5
BITMAP
0180
03C0
03C0
03C0
03C0
03C0
7FFE
FFFF
FFFF
7FFE
03C0
03C0
03C0
03C0
7FFE
FFFF
FFFF
7FFE
ENDCHAR
STARTCHAR 00B2
ENCODING 178
SWIDTH 480 0
DWIDTH 20 0
BBX 16 20 0 8
BITMAP
0FE0
3FF8
7FFC
FFFE
F83F
600F
000F
001F
0FFE
3FFE
7FFC
7FF0
F800
F000
F006
F01F
FFFF
FFFF
FFFC
FFF0
ENDCHAR
STARTCHAR 00B3
ENCODING 179
SWIDTH 504 0
DWIDTH 21 0
BBX 16 20 1 8
BITMAP
0FE0
3FF8
7FFC
FFFE
F83F
600F
000F
003F
07FE
0FFE
0FFE
07FE
001F
000F
600F
F83F
FFFE
7FFC
3FF8
0FE0
ENDCHAR
STARTCHAR 00B4
ENCODING 180
SWIDTH 480 0
DWIDTH 20 0
BBX 6 8 5 20
BITMAP
08
3C
3C
7C
F8
F8
F0
60
ENDCHAR
STARTCHAR 00B5
ENCODING 181
SWIDTH 480 0
DWIDTH 20 0
BBX 16 28 0 -8
BITMAP
6006
F00F
F00F
F00F
F00F
F00F
F00F
F00F
F00F
F00F
F00F
F00F
F00F
F00F
F81F
FC3F
FFFF
FFFF
FFFF
F7E6
F000
F000
F000
F000
F000
F000
F000
6000
ENDCHAR
STARTCHAR 00B6
ENCODING 182
SWIDTH 480 0
DWIDTH 20 0
BBX 16 28 0 0
BITMAP
07FE
1FFF
3FFF
7FFF
7FCF
FFCF
FFCF
FFCF
FFCF
FFCF
FFCF
7FCF
7FCF
3FCF
1FCF
07CF
03CF
03CF
03CF
03CF
03CF
03CF
03CF
03CF
03CF
03CF
03CF
0186
ENDCHAR
STARTCHAR 00B7
ENCODING 183
SWIDTH 480 0
DWIDTH 20 0
BBX 6 6 5 11
BITMAP
78
FC
FC
FC
FC
78
ENDCHAR
STARTCHAR 00B8
ENCODING 184
SWIDTH 480 0
DWIDTH 20 0
BBX 7 9 6 -7
BITMAP
3C
78
78
F0
FC
FC
1E
7C
78
ENDCHAR
STARTCHAR 00B9
ENCODING 185
SWIDTH 480 0
DWIDTH 20 0
BBX 16 20 0 8
BITMAP
7F80
FFC0
FFC0
7FC0
03C0
03C0
03C0
03C0
03C0
03C0
03C0
03C0
03C0
03C0
03C0
03C0
7FFF
FFFF
FFFF
7FFF
ENDCHAR
STARTCHAR 00BA
ENCODING 186
SWIDTH 480 0
DWIDTH 20 0
BBX 16 20 0 8
BITMAP
07E0
1FF8
3FFC
7FFE
7C3E
F81F
F00F
F00F
F00F
F00F
F00F
F00F
F00F
F00F
F81F
7C3E
7FFE
3FFC
1FF8
07E0
ENDCHAR
STARTCHAR 00BF
ENCODING 191
SWIDTH 504 0
DWIDTH 21 0
BBX 16 28 1 -8
BITMAP
0180
03C0
03C0
0180
0000
0000
0000
0000
0180
03C0
03C0
03C0
07C0
1FC0
3FC0
7F80
7C00
F800
F000
F000
F000
F000
F806
7C0F
7FFF
3FFF
1FFC
03F0
ENDCHAR
STARTCHAR 00C0
ENCODING 192
SWIDTH 480 0
DWIDTH 20 0
BBX 17 36 0 0
BITMAP
060000
0F0000
0F8000
0F8000
07C000
03C000
03C000
000000
03C000
07E000
07E000
07E000
07F000
0FF000
0FF000
0FF000
0FF800
1F7800
1E7800
1E7800
1E7C00
3E3C00
3C3C00
3C3C00
3C3E00
3C1E00
781E00
781E00
7FFE00
7FFF00
FFFF00
FFFF00
F00F00
F00F80
F00780
E00700
ENDCHAR
STARTCHAR 00C1
ENCODING 193
SWIDTH 480 0
DWIDTH 20 0
BBX 17 36 0 0
BITMAP
007000
00F000
00F000
01F000
03E000
03C000
03C000
000000
03C000
07E000
07E000
07E000
07F000
0FF000
0FF000
0FF000
0FF800
1F7800
1E7800
1E7800
1E7C00
3E3C00
3C3C00
3C3C00
3C3E00
3C1E00
781E00
781E00
7FFE00
7FFF00
FFFF00
FFFF00
F00F00
F00F80
F00780
E00700
ENDCHAR
STARTCHAR 00C2
ENCODING 194
SWIDTH 480 0
DWIDTH 20 0
BBX 17 37 0 0
BITMAP
008000
03C000
03E000
07E000
0FF000
0FF800
0F7000
063000
000000
03C000
07E000
07E000
07E000
07F000
0FF000
0FF000
0FF000
0FF800
1F7800
1E7800
1E7800
1E7C00
3E3C00
3C3C00
3C3C00
3C3E00
3C1E00
781E00
781E00
7FFE00
7FFF00
FFFF00
FFFF00
F00F00
F00F80
F00780
E00700
ENDCHAR
STARTCHAR 00C3
ENCODING 195
SWIDTH 480 0
DWIDTH 20 0
BBX 16 36 0 0
BITMAP
1E00
3FFC
3FFC
3FFC
00F8
0000
0000
0000
03C0
07E0
07E0
07E0
07E0
0FF0
0FF0
0FF0
0FF0
1E78
1E78
1E78
1E78
3E7C
3C3C
3C3C
3C3C
7C3E
781E
781E
7FFE
7FFE
FFFF
FFFF
F00F
F00F
F00F
E007
ENDCHAR
STARTCHAR 00C4
ENCODING 196
SWIDTH 480 0
DWIDTH 20 0
BBX 16 36 0 0
BITMAP
1818
3C3C
3C3C
1818
0000
0000
0000
0000
03C0
07E0
07E0
07E0
07F0
0FF0
0FF0
0FF0
0FF0
1F78
1E78
1E78
1E78
3E7C
3C3C
3C3C
3C3C
7C3E
781E
781E
7FFE
7FFE
FFFF
FFFF
F00F
F00F
F00F
E007
ENDCHAR
STARTCHAR 00C5
ENCODING 197
SWIDTH 480 0
DWIDTH 20 0
BBX 16 36 0 0
BITMAP
03C0
0FF0
0FF0
1E78
1C38
1C38
1E78
0FF0
0FF0
07E0
07E0
07E0
07E0
0FF0
0FF0
0FF0
0FF0
1F78
1E78
1E78
1E78
3E7C
3C3C
3C3C
3C3C
7C3E
781E
781E
7FFE
7FFE
FFFF
FFFF
F00F
F00F
F00F
E007
ENDCHAR
STARTCHAR 00C6
ENCODING 198
SWIDTH 480 0
DWIDTH 20 0
BBX 16 28 0 0
BITMAP
03FE
07FF
07FF
07FE
0FF0
0FF0
0FF0
0FF0
0FF0
1EF0
1EF0
1EF0
1EFE
3EFF
3CFF
3CFE
3CF0
7CF0
78F0
78F0
7FF0
FFF0
FFF0
FFF0
F0FE
F0FF
E0FF
E07E
ENDCHAR
STARTCHAR 00C7
ENCODING 199
SWIDTH 480 0
DWIDTH 20 0
BBX 16 34 0 -6
BITMAP
03F0
1FFC
3FFF
7FFF
7C0F
F806
F000
F000
F000
F000
F000
F000
F000
F000
F000
F000
F000
F000
F000
F000
F000
F000
F806
7C0F
7FFF
3FFF
1FFC
03F0
03C0
03F0
00F0
00F0
03E0
01C0
ENDCHAR
STARTCHAR 00C8
ENCODING 200
SWIDTH 504 0
DWIDTH 21 0
BBX 16 36 0 0
BITMAP
0600
0F00
0F80
0F80
07C0
03C0
03C0
0000
7FFF
FFFF
FFFF
FFFF
F000
F000
F000
F000
F000
F000
F000
F000
FFFC
FFFC
FFFC
FFFC
F000
F000
F000
F000
F000
F000
F000
F000
FFFF
FFFF
FFFF
7FFF
ENDCHAR
STARTCHAR 00C9
ENCODING 201
SWIDTH 504 0
DWIDTH 21 0
BBX 16 36 0 0
BITMAP
0070
00F0
00F0
01F0
03E0
03C0
03C0
0000
7FFF
FFFF
FFFF
FFFF
F000
F000
F000
F000
F000
F000
F000
F000
FFFC
FFFC
FFFC
FFFC
F000
F000
F000
F000
F000
F000
F000
F000
FFFF
FFFF
FFFF
7FFF
ENDCHAR
STARTCHAR 00CA
ENCODING 202
SWIDTH 504 0
DWIDTH 21 0
BBX 16 36 0 0
BITMAP
01C0
03C0
07E0
07F0
0FF8
0FF8
0E70
0000
7FFF
FFFF
FFFF
FFFF
F000
F000
F000
F000
F000
F000
F000
F000
FFFC
FFFC
FFFC
FFFC
F000
F000
F000
F000
F000
F000
F000
F000
FFFF
FFFF
FFFF
7FFF
ENDCHAR
STARTCHAR 00CB
ENCODING 203
SWIDTH 504 0
DWIDTH 21 0
BBX 16 36 0 0
BITMAP
1818
3C3C
3C3C
1818
0000
0000
0000
0000
7FFF
FFFF
FFFF
FFFF
F000
F000
F000
F000
F000
F000
F000
F000
FFF8
FFFC
FFFC
FFF8
F000
F000
F000
F000
F000
F000
F000
F000
FFFF
FFFF
FFFF
7FFF
ENDCHAR
STARTCHAR 00CC
ENCODING 204
SWIDTH 480 0
DWIDTH 20 0
BBX 16 36 0 0
BITMAP
0600
0F00
0F80
0F80
07C0
03C0
03C0
0000
7FFE
FFFF
FFFF
7FFE
03C0
03C0
03C0
03C0
03C0
03C0
03C0
03C0
03C0
03C0
03C0
03C0
03C0
03C0
03C0
03C0
03C0
03C0
03C0
03C0
7FFE
FFFF
FFFF
7FFE
ENDCHAR
STARTCHAR 00CD
ENCODING 205
SWIDTH 480 0
DWIDTH 20 0
BBX 16 36 0 0
BITMAP
0070
00F0
00F0
01F0
03E0
03C0
03C0
0000
7FFE
FFFF
FFFF
7FFE
03C0
03C0
03C0
03C0
03C0
03C0
03C0
03C0
03C0
03C0
03C0
03C0
03C0
03C0
03C0
03C0
03C0
03C0
03C0
03C0
7FFE
FFFF
FFFF
7FFE
ENDCHAR
STARTCHAR 00CE
ENCODING 206
SWIDTH 480 0
DWIDTH 20 0
BBX 16 36 0 0
BITMAP
0180
03C0
07E0
0FF0
0FF0
0FF0
0E70
0000
7FFE
FFFF
FFFF
7FFE
03C0
03C0
03C0
03C0
03C0
03C0
03C0
03C0
03C0
03C0
03C0
03C0
03C0
03C0
03C0
03C0
03C0
03C0
03C0
03C0
7FFE
FFFF
FFFF
7FFE
ENDCHAR
STARTCHAR 00CF
ENCODING 207
SWIDTH 480 0
DWIDTH 20 0
BBX 16 36 0 0
BITMAP
1818
3C3C
3C3C
1818
0000
0000
0000
0000
7FFE
FFFF
FFFF
7FFE
03C0
03C0
03C0
03C0
03C0
03C0
03C0
03C0
03C0
03C0
03C0
03C0
03C0
03C0
03C0
03C0
03C0
03C0
03C0
03C0
7FFE
FFFF
FFFF
7FFE
ENDCHAR
STARTCHAR 00D0
ENCODING 208
SWIDTH 480 0
DWIDTH 20 0
BBX 16 28 0 0
BITMAP
1FE0
3FF8
3FFC
3FFE
3C3E
3C1F
3C0F
3C0F
3C0F
3C0F
3C0F
3C0F
7F8F
FFCF
FFCF
7F8F
3C0F
3C0F
3C0F
3C0F
3C0F
3C0F
3C1F
3C3E
3FFE
3FFC
3FF8
1FE0
ENDCHAR
STARTCHAR 00D1
ENCODING 209
SWIDTH 480 0
DWIDTH 20 0
BBX 16 36 0 0
BITMAP
1E00
3FFC
3FFC
3FFC
00F8
0000
0000
0000
6006
F00F
F80F
F80F
FC0F
FC0F
FE0F
FE0F
FF0F
FF0F
FF8F
F78F
F7CF
F3CF
F3EF
F1EF
F1FF
F0FF
F0FF
F07F
F07F
F03F
F03F
F01F
F01F
F00F
F00F
6006
ENDCHAR
STARTCHAR 00D2
ENCODING 210
SWIDTH 480 0
DWIDTH 20 0
BBX 16 36 0 0
BITMAP
0600
0F00
0F80
0F80
07C0
03C0
03C0
0000
07E0
1FF8
3FFC
7FFE
7C3E
F81F
F00F
F00F
F00F
F00F
F00F
F00F
F00F
F00F
F00F
F00F
F00F
F00F
F00F
F00F
F00F
F00F
F81F
7C3E
7FFE
3FFC
1FF8
07E0
ENDCHAR
STARTCHAR 00D3
ENCODING 211
SWIDTH 480 0
DWIDTH 20 0
BBX 16 36 0 0
BITMAP
0070
00F0
00F0
01F0
03E0
03C0
03C0
0000
07E0
1FF8
3FFC
7FFE
7C3E
F81F
F00F
F00F
F00F
F00F
F00F
F00F
F00F
F00F
F00F
F00F
F00F
F00F
F00F
F00F
F00F
F00F
F81F
7C3E
7FFE
3FFC
1FF8
07E0
ENDCHAR
STARTCHAR 00D4
ENCODING 212
SWIDTH 480 0
DWIDTH 20 0
BBX 16 36 0 0
BITMAP
0180
03C0
07E0
0FF0
0FF0
0FF0
0E70
0000
07E0
1FF8
3FFC
7FFE
7C3E
F81F
F00F
F00F
F00F
F00F
F00F
F00F
F00F
F00F
F00F
F00F
F00F
F00F
F00F
F00F
F00F
F00F
F81F
7C3E
7FFE
3FFC
1FF8
07E0
ENDCHAR
STARTCHAR 00D5
ENCODING 213
SWIDTH 480 0
DWIDTH 20 0
BBX 16 36 0 0
BITMAP
1E00
3FFC
3FFC
3FFC
00F8
0000
0000
0000
07E0
1FF8
3FFC
7FFE
7C3E
F81F
F00F
F00F
F00F
F00F
F00F
F00F
F00F
F00F
F00F
F00F
F00F
F00F
F00F
F00F
F00F
F00F
F81F
7C3E
7FFE
3FFC
1FF8
07E0
ENDCHAR
STARTCHAR 00D6
ENCODING 214
SWIDTH 480 0
DWIDTH 20 0
BBX 16 36 0 0
BITMAP
1818
3C3C
3C3C
1818
0000
0000
0000
0000
07E0
1FF8
3FFC
7FFE
7C3E
F81F
F00F
F00F
F00F
F00F
F00F
F00F
F00F
F00F
F00F
F00F
F00F
F00F
F00F
F00F
F00F
F00F
F81F
7C3E
7FFE
3FFC
1FF8
07E0
ENDCHAR
STARTCHAR 00D7
ENCODING 215
SWIDTH 504 0
DWIDTH 21 0
BBX 13 12 2 8
BITMAP
6030
F8F8
FDF8
7FF0
3FE0
1FC0
1FC0
3FE0
7FF0
FDF8
F8F8
6030
ENDCHAR
STARTCHAR 00D8
ENCODING 216
SWIDTH 480 0
DWIDTH 20 0
BBX 16 28 0 0
BITMAP
07E6
1FFF
3FFF
7FFF
7C3E
F83F
F03F
F07F
F07F
F0FF
F0FF
F1EF
F1EF
F3CF
F3CF
F78F
F78F
FF0F
FF0F
FE0F
FE0F
FC0F
FC1F
7C3E
7FFE
FFFC
FFF8
67E0
ENDCHAR
STARTCHAR 00D9
ENCODING 217
SWIDTH 480 0
DWIDTH 20 0
BBX 16 36 0 0
BITMAP
0600
0F00
0F80
0F80
07C0
03C0
03C0
0000
6006
F00F
F00F
F00F
F00F
F00F
F00F
F00F
F00F
F00F
F00F
F00F
F00F
F00F
F00F
F00F
F00F
F00F
F00F
F00F
F00F
F00F
F81F
7C3E
7FFE
3FFC
1FF8
07E0
ENDCHAR
STARTCHAR 00DA
ENCODING 218
SWIDTH 480 0
DWIDTH 20 0
BBX 16 36 0 0
BITMAP
0070
00F0
00F0
01F0
03E0
03C0
03C0
0000
6006
F00F
F00F
F00F
F00F
F00F
F00F
F00F
F00F
F00F
F00F
F00F
F00F
F00F
F00F
F00F
F00F
F00F
F00F
F00F
F00F
F00F
F81F
7C3E
7FFE
3FFC
1FF8
07E0
ENDCHAR
STARTCHAR 00DB
ENCODING 219
SWIDTH 480 0
DWIDTH 20 0
BBX 16 36 0 0
BITMAP
0180
03C0
07E0
0FF0
0FF0
0FF0
0E70
0000
6006
F00F
F00F
F00F
F00F
F00F
F00F
F00F
F00F
F00F
F00F
F00F
F00F
F00F
F00F
F00F
F00F
F00F
F00F
F00F
F00F
F00F
F81F
7C3E
7FFE
3FFC
1FF8
07E0
ENDCHAR
STARTCHAR 00DC
ENCODING 220
SWIDTH 480 0
DWIDTH 20 0
BBX 16 36 0 0
BITMAP
1818
3C3C
3C3C
1818
0000
0000
0000
0000
6006
F00F
F00F
F00F
F00F
F00F
F00F
F00F
F00F
F00F
F00F
F00F
F00F
F00F
F00F
F00F
F00F
F00F
F00F
F00F
F00F
F00F
F81F
7C3E
7FFE
3FFC
1FF8
07E0
ENDCHAR
STARTCHAR 00DD
ENCODING 221
SWIDTH 480 0
DWIDTH 20 0
BBX 16 36 0 0
BITMAP
0070
00F0
00F0
01F0
03E0
03C0
03C0
0000
6006
F00F
F81F
781F
7C3E
3C3E
3E3C
1E7C
1F78
0FF8
0FF0
07F0
07E0
03E0
03C0
03C0
03C0
03C0
03C0
03C0
03C0
03C0
03C0
03C0
03C0
03C0
03C0
0180
ENDCHAR
STARTCHAR 00DE
ENCODING 222
SWIDTH 480 0
DWIDTH 20 0
BBX 16 36 0 -8
BITMAP
6000
F000
F000
F000
F000
F000
F000
F000
FFE0
FFF8
FFFC
FFFE
F03E
F01F
F00F
F00F
F00F
F00F
F00F
F00F
F00F
F00F
F01F
F03E
FFFE
FFFC
FFF8
FFE0
F000
F000
F000
F000
F000
F000
F000
6000
ENDCHAR
STARTCHAR 00DF
ENCODING 223
SWIDTH 480 0
DWIDTH 20 0
BBX 16 30 0 -2
BITMAP
07E0
1FF8
3FFC
7FFE
7C3E
F81F
F00F
F00F
F00F
F00F
F01F
F03E
F1FE
F3FC
F3FC
F1FE
F03E
F01F
F00F
F00F
F00F
F00F
F01F
F03E
F1FE
F3FC
F3F8
F1E0
F000
6000
ENDCHAR
STARTCHAR 00E0
ENCODING 224
SWIDTH 480 0
DWIDTH 20 0
BBX 16 28 0 0
BITMAP
0600
0F00
0F80
0F80
07C0
03C0
03C0
0080
07E6
1FFF
3FFF
7FFF
7C3F
F81F
F00F
F00F
F00F
F00F
F00F
F00F
F00F
F00F
F81F
7C3F
7FFF
3FFF
1FFF
07E6
ENDCHAR
STARTCHAR 00E1
ENCODING 225
SWIDTH 480 0
DWIDTH 20 0
BBX 16 28 0 0
BITMAP
0020
00F0
00F0
01F0
03E0
03E0
03C0
0180
07E6
1FFF
3FFF
7FFF
7C3F
F81F
F00F
F00F
F00F
F00F
F00F
F00F
F00F
F00F
F81F
7C3F
7FFF
3FFF
1FFF
07E6
ENDCHAR
STARTCHAR 00E2
ENCODING 226
SWIDTH 480 0
DWIDTH 20 0
BBX 16 28 0 0
BITMAP
0180
03C0
07E0
0FF0
0FF0
0FF0
0E70
0000
07E6
1FFF
3FFF
7FFF
7C3F
F81F
F00F
F00F
F00F
F00F
F00F
F00F
F00F
F00F
F81F
7C3F
7FFF
3FFF
1FFF
07E6
ENDCHAR
STARTCHAR 00E3
ENCODING 227
SWIDTH 480 0
DWIDTH 20 0
BBX 16 28 0 0
BITMAP
1E00
3FFC
3FFC
3FFC
00F8
0000
0000
0000
07E6
1FFF
3FFF
7FFF
7C3F
F81F
F00F
F00F
F00F
F00F
F00F
F00F
F00F
F00F
F81F
7C3F
7FFF
3FFF
1FFF
07E6
ENDCHAR
STARTCHAR 00E4
ENCODING 228
SWIDTH 480 0
DWIDTH 20 0
BBX 16 28 0 0
BITMAP
1818
3C3C
3C3C
1818
0000
0000
0000
0000
07E6
1FFF
3FFF
7FFF
7C3F
F81F
F00F
F00F
F00F
F00F
F00F
F00F
F00F
F00F
F81F
7C3F
7FFF
3FFF
1FFF
07E6
ENDCHAR
STARTCHAR 00E5
ENCODING 229
SWIDTH 480 0
DWIDTH 20 0
BBX 16 28 0 0
BITMAP
03C0
0FF0
0FF0
1E78
1C38
1C38
1E78
0FF0
0FF6
1FFF
3FFF
7FFF
7C3F
F81F
F00F
F00F
F00F
F00F
F00F
F00F
F00F
F00F
F81F
7C3F
7FFF
3FFF
1FFF
07E6
ENDCHAR
STARTCHAR 00E6
ENCODING 230
SWIDTH 480 0
DWIDTH 20 0
BBX 16 20 0 0
BITMAP
07E0
1FF8
3FFC
3FFE
3FFE
1BDF
03CF
03CF
7FFF
FFFF
FFFF
FFFE
F3C0
F3C0
FBD8
7FFC
7FFC
3FFC
1FF8
07E0
ENDCHAR
STARTCHAR 00E7
ENCODING 231
SWIDTH 480 0
DWIDTH 20 0
BBX 16 26 0 -7
BITMAP
03F0
1FFC
3FFF
7FFF
7C0F
F806
F000
F000
F000
F000
F000
F000
F000
F000
F806
7C0F
7FFF
3FFF
1FFE
07F8
03C0
03E0
03F0
00F0
01F0
01E0
ENDCHAR
STARTCHAR 00E8
ENCODING 232
SWIDTH 480 0
DWIDTH 20 0
BBX 16 28 0 0
BITMAP
0600
0F00
0F80
0F80
07C0
03C0
03C0
0080
07E0
1FF8
3FFC
7FFE
7C3E
F81F
F00F
F00F
FFFF
FFFF
FFFF
FFFE
F000
F000
F818
7C3C
7FFC
3FFC
1FF8
07E0
ENDCHAR
STARTCHAR 00E9
ENCODING 233
SWIDTH 480 0
DWIDTH 20 0
BBX 16 28 0 0
BITMAP
0020
00F0
00F0
01F0
03E0
03E0
03C0
0180
07E0
1FF8
3FFC
7FFE
7C3E
F81F
F00F
F00F
FFFF
FFFF
FFFF
FFFE
F000
F000
F818
7C3C
7FFC
3FFC
1FF8
07E0
ENDCHAR
STARTCHAR 00EA
ENCODING 234
SWIDTH 480 0
DWIDTH 20 0
BBX 16 28 0 0
BITMAP
0180
03C0
07E0
0FF0
0FF0
0FF0
0E70
0000
07E0
1FF8
3FFC
7FFE
7C3E
F81F
F00F
F00F
FFFF
FFFF
FFFF
FFFE
F000
F000
F818
7C3C
7FFC
3FFC
1FF8
07E0
ENDCHAR
STARTCHAR 00EB
ENCODING 235
SWIDTH 480 0
DWIDTH 20 0
BBX 16 28 0 0
BITMAP
1818
3C3C
3C3C
1818
0000
0000
0000
0000
07E0
1FF8
3FFC
7FFE
7C3E
F81F
F00F
F00F
FFFF
FFFF
FFFF
FFFE
F000
F000
F818
7C3C
7FFC
3FFC
1FF8
07E0
ENDCHAR
STARTCHAR 00EC
ENCODING 236
SWIDTH 480 0
DWIDTH 20 0
BBX 16 28 0 0
BITMAP
0600
0F00
0F80
0F80
07C0
03C0
03C0
0080
7F80
FFC0
FFC0
7FC0
03C0
03C0
03C0
03C0
03C0
03C0
03C0
03C0
03C0
03C0
03C0
03C0
7FFE
FFFF
FFFF
7FFE
ENDCHAR
STARTCHAR 00ED
ENCODING 237
SWIDTH 480 0
DWIDTH 20 0
BBX 16 28 0 0
BITMAP
0020
00F0
00F0
01F0
03E0
03E0
03C0
0180
7F80
FFC0
FFC0
7FC0
03C0
03C0
03C0
03C0
03C0
03C0
03C0
03C0
03C0
03C0
03C0
03C0
7FFE
FFFF
FFFF
7FFE
ENDCHAR
STARTCHAR 00EE
ENCODING 238
SWIDTH 480 0
DWIDTH 20 0
BBX 16 28 0 0
BITMAP
0180
03C0
07E0
0FF0
0FF0
0FF0
0E70
0000
7F80
FFC0
FFC0
7FC0
03C0
03C0
03C0
03C0
03C0
03C0
03C0
03C0
03C0
03C0
03C0
03C0
7FFE
FFFF
FFFF
7FFE
ENDCHAR
STARTCHAR 00EF
ENCODING 239
SWIDTH 480 0
DWIDTH 20 0
BBX 16 28 0 0
BITMAP
1818
3C3C
3C3C
1818
0000
0000
0000
0000
7F80
FFC0
FFC0
7FC0
03C0
03C0
03C0
03C0
03C0
03C0
03C0
03C0
03C0
03C0
03C0
03C0
7FFE
FFFF
FFFF
7FFE
ENDCHAR
STARTCHAR 00F0
ENCODING 240
SWIDTH 480 0
DWIDTH 20 0
BBX 17 28 0 1
BITMAP
0FC780
3FFF80
FFFF80
FFFF00
F8FE00
61FF00
01FF00
01EF00
000F00
000F00
07EF00
1FFF00
3FFF00
7FFF00
7C3F00
F81F00
F00F00
F00F00
F00F00
F00F00
F00F00
F00F00
F81F00
7C3E00
7FFE00
3FFC00
1FF800
07E000
ENDCHAR
STARTCHAR 00F1
ENCODING 241
SWIDTH 480 0
DWIDTH 20 0
BBX 16 28 0 0
BITMAP
1E00
3FFC
3FFC
3FFC
00F8
0000
0000
0000
67E0
FFF8
FFFC
FFFE
FC3E
F81F
F00F
F00F
F00F
F00F
F00F
F00F
F00F
F00F
F00F
F00F
F00F
F00F
F00F
6006
ENDCHAR
STARTCHAR 00F2
ENCODING 242
SWIDTH 480 0
DWIDTH 20 0
BBX 16 28 0 0
BITMAP
0600
0F00
0F80
0F80
07C0
03C0
03C0
0080
07E0
1FF8
3FFC
7FFE
7C3E
F81F
F00F
F00F
F00F
F00F
F00F
F00F
F00F
F00F
F81F
7C3E
7FFE
3FFC
1FF8
07E0
ENDCHAR
STARTCHAR 00F3
ENCODING 243
SWIDTH 480 0
DWIDTH 20 0
BBX 16 28 0 0
BITMAP
0020
00F0
00F0
01F0
03E0
03E0
03C0
0180
07E0
1FF8
3FFC
7FFE
7C3E
F81F
F00F
F00F
F00F
F00F
F00F
F00F
F00F
F00F
F81F
7C3E
7FFE
3FFC
1FF8
07E0
ENDCHAR
STARTCHAR 00F4
ENCODING 244
SWIDTH 480 0
DWIDTH 20 0
BBX 16 28 0 0
BITMAP
0180
03C0
07E0
0FF0
0FF0
0FF0
0E70
0000
07E0
1FF8
3FFC
7FFE
7C3E
F81F
F00F
F00F
F00F
F00F
F00F
F00F
F00F
F00F
F81F
7C3E
7FFE
3FFC
1FF8
07E0
ENDCHAR
STARTCHAR 00F5
ENCODING 245
SWIDTH 480 0
DWIDTH 20 0
BBX 16 28 0 0
BITMAP
1E00
3FFC
3FFC
3FFC
00F8
0000
0000
0000
07E0
1FF8
3FFC
7FFE
7C3E
F81F
F00F
F00F
F00F
F00F
F00F
F00F
F00F
F00F
F81F
7C3E
7FFE
3FFC
1FF8
07E0
ENDCHAR
STARTCHAR 00F6
ENCODING 246
SWIDTH 480 0
DWIDTH 20 0
BBX 16 28 0 0
BITMAP
1818
3C3C
3C3C
1818
0000
0000
0000
0000
07E0
1FF8
3FFC
7FFE
7C3E
F81F
F00F
F00F
F00F
F00F
F00F
F00F
F00F
F00F
F81F
7C3E
7FFE
3FFC
1FF8
07E0
ENDCHAR
STARTCHAR 00F7
ENCODING 247
SWIDTH 480 0
DWIDTH 20 0
BBX 16 16 0 6
BITMAP
0180
03C0
03C0
0180
0000
0000
7FFE
FFFF
FFFF
7FFE
0000
0000
0180
03C0
03C0
0180
ENDCHAR
STARTCHAR 00F8
ENCODING 248
SWIDTH 480 0
DWIDTH 20 0
BBX 16 20 0 0
BITMAP
07EE
1FFF
3FFF
7FFE
7C3E
F87F
F0FF
F1FF
F1FF
F3EF
F7CF
FF8F
FF8F
FF0F
FE1F
7C3E
7FFE
FFFC
FFF8
67E0
ENDCHAR
STARTCHAR 00F9
ENCODING 249
SWIDTH 480 0
DWIDTH 20 0
BBX 16 28 0 0
BITMAP
0600
0F00
0F80
0F80
07C0
03C0
03C0
0080
6006
F00F
F00F
F00F
F00F
F00F
F00F
F00F
F00F
F00F
F00F
F00F
F00F
F00F
F81F
7C3F
7FFF
3FFF
1FFF
07E6
ENDCHAR
STARTCHAR 00FA
ENCODING 250
SWIDTH 480 0
DWIDTH 20 0
BBX 16 28 0 0
BITMAP
0020
00F0
00F0
01F0
03E0
03E0
03C0
0180
6006
F00F
F00F
F00F
F00F
F00F
F00F
F00F
F00F
F00F
F00F
F00F
F00F
F00F
F81F
7C3F
7FFF
3FFF
1FFF
07E6
ENDCHAR
STARTCHAR 00FB
ENCODING 251
SWIDTH 480 0
DWIDTH 20 0
BBX 16 28 0 0
BITMAP
0180
03C0
07E0
0FF0
0FF0
0FF0
0E70
0000
6006
F00F
F00F
F00F
F00F
F00F
F00F
F00F
F00F
F00F
F00F
F00F
F00F
F00F
F81F
7C3F
7FFF
3FFF
1FFF
07E6
ENDCHAR
STARTCHAR 00FC
ENCODING 252
SWIDTH 480 0
DWIDTH 20 0
BBX 16 28 0 0
BITMAP
1818
3C3C
3C3C
1818
0000
0000
0000
0000
6006
F00F
F00F
F00F
F00F
F00F
F00F
F00F
F00F
F00F
F00F
F00F
F00F
F00F
F81F
7C3F
7FFF
3FFF
1FFF
07E6
ENDCHAR
STARTCHAR 00FD
ENCODING 253
SWIDTH 504 0
DWIDTH 21 0
BBX 16 36 1 -8
BITMAP
0020
00F0
00F0
01F0
03E0
03E0
03C0
0180
6006
F00F
F00F
F00F
F00F
F00F
F00F
F00F
F00F
F00F
F00F
F00F
F00F
F00F
F81F
7C3F
7FFF
3FFF
1FFF
07EF
000F
000F
601F
F03E
FFFE
7FFC
3FF8
0FC0
ENDCHAR
STARTCHAR 00FE
ENCODING 254
SWIDTH 480 0
DWIDTH 20 0
BBX 16 36 0 -8
BITMAP
6000
F000
F000
F000
F000
F000
F000
F000
F7E0
FFF8
FFFC
FFFE
FC3E
F81F
F00F
F00F
F00F
F00F
F00F
F00F
F00F
F00F
F81F
FC3E
FFFE
FFFC
FFF8
F7E0
F000
F000
F000
F000
F000
F000
F000
6000
ENDCHAR
STARTCHAR 00FF
ENCODING 255
SWIDTH 504 0
DWIDTH 21 0
BBX 16 36 1 -8
BITMAP
1818
3C3C
3C3C
1818
0000
0000
0000
0000
6006
F00F
F00F
F00F
F00F
F00F
F00F
F00F
F00F
F00F
F00F
F00F
F00F
F00F
F81F
7C3F
7FFF
3FFF
1FFF
07EF
000F
000F
601F
F03E
FFFE
7FFC
3FF8
0FC0
ENDCHAR
STARTCHAR 0131
ENCODING 305
SWIDTH 480 0
DWIDTH 20 0
BBX 16 20 0 0
BITMAP
7F80
FFC0
FFC0
7FC0
03C0
03C0
03C0
03C0
03C0
03C0
03C0
03C0
03C0
03C0
03C0
03C0
7FFE
FFFF
FFFF
7FFE
ENDCHAR
STARTCHAR 02C6
ENCODING 710
SWIDTH 480 0
DWIDTH 20 0
BBX 9 7 4 21
BITMAP
1C00
3C00
7E00
7F00
FF00
FF80
E700
ENDCHAR
STARTCHAR 02C7
ENCODING 711
SWIDTH 480 0
DWIDTH 20 0
BBX 9 7 4 21
BITMAP
E700
FF80
FF80
FF00
7E00
3E00
3C00
ENDCHAR
STARTCHAR 02DA
ENCODING 730
SWIDTH 480 0
DWIDTH 20 0
BBX 10 10 3 18
BITMAP
1E00
7F80
7F80
F3C0
E1C0
E1C0
F3C0
7F80
7F80
1E00
ENDCHAR
STARTCHAR 02DB
ENCODING 731
SWIDTH 480 0
DWIDTH 20 0
BBX 6 9 6 -7
BITMAP
F0
78
78
3C
FC
F8
E0
F0
78
ENDCHAR
STARTCHAR 02DC
ENCODING 732
SWIDTH 480 0
DWIDTH 20 0
BBX 12 5 2 23
BITMAP
7E60
FFF0
FFF0
67E0
00C0
ENDCHAR
STARTCHAR 037E
ENCODING 894
SWIDTH 480 0
DWIDTH 20 0
BBX 6 25 5 -4
BITMAP
78
FC
FC
FC
FC
78
00
00
00
00
00
00
00
00
00
00
00
18
3C
3C
7C
78
F8
F0
60
ENDCHAR
STARTCHAR 2013
ENCODING 8211
SWIDTH 480 0
DWIDTH 20 0
BBX 16 4 0 12
BITMAP
7FFE
FFFF
FFFF
7FFE
ENDCHAR
STARTCHAR 2014
ENCODING 8212
SWIDTH 480 0
DWIDTH 20 0
BBX 16 4 0 12
BITMAP
7FFE
FFFF
FFFF
7FFE
ENDCHAR
STARTCHAR 2018
ENCODING 8216
SWIDTH 480 0
DWIDTH 20 0
BBX 4 8 6 20
BITMAP
60
F0
E0
E0
F0
F0
F0
60
ENDCHAR
STARTCHAR 2019
ENCODING 8217
SWIDTH 480 0
DWIDTH 20 0
BBX 4 8 6 20
BITMAP
60
F0
F0
F0
70
70
F0
60
ENDCHAR
STARTCHAR 201A
ENCODING 8218
SWIDTH 480 0
DWIDTH 20 0
BBX 4 8 6 -4
BITMAP
60
F0
F0
F0
70
70
F0
60
ENDCHAR
STARTCHAR 201C
ENCODING 8220
SWIDTH 480 0
DWIDTH 20 0
BBX 9 8 3 20
BITMAP
6300
F780
E700
E700
F780
F780
F780
6300
ENDCHAR
STARTCHAR 201D
ENCODING 8221
SWIDTH 480 0
DWIDTH 20 0
BBX 9 8 3 20
BITMAP
6300
F780
F780
F780
7380
7380
F780
6300
ENDCHAR
STARTCHAR 201E
ENCODING 8222
SWIDTH 480 0
DWIDTH 20 0
BBX 9 8 3 -4
BITMAP
6300
F780
F780
F780
7380
7380
F780
6300
ENDCHAR
STARTCHAR 2022
ENCODING 8226
SWIDTH 480 0
DWIDTH 20 0
BBX 8 8 4 10
BITMAP
3C
7E
FF
FF
FF
FF
7E
3C
ENDCHAR
STARTCHAR 2026
ENCODING 8230
SWIDTH 480 0
DWIDTH 20 0
BBX 16 4 0 0
BITMAP
6186
F3CF
F3CF
6186
ENDCHAR
STARTCHAR 20A4
ENCODING 8356
SWIDTH 480 0
DWIDTH 20 0
BBX 16 28 0 0
BITMAP
01F8
07FC
0FFF
1FFF
1F0F
3E06
3C00
3C00
3C00
7FFC
FFFE
FFFE
7FFC
3C00
3C00
7FFC
FFFE
FFFE
7FFC
3C00
3C00
3C00
3C00
3C00
7FFE
FFFF
FFFF
7FFE
ENDCHAR
STARTCHAR 20AC
ENCODING 8364
SWIDTH 480 0
DWIDTH 20 0
BBX 16 28 0 0
BITMAP
01F8
07FC
0FFF
1FFF
1F0F
3E06
3C00
3C00
3C00
7FFC
FFFE
FFFE
7FFC
3C00
3C00
7FFC
FFFE
FFFE
7FFC
3C00
3C00
3C00
3E06
1F0F
1FFF
0FFF
07FC
01F8
ENDCHAR
STARTCHAR 2116
ENCODING 8470
SWIDTH 480 0
DWIDTH 20 0
BBX 16 28 0 0
BITMAP
F3DE
F3FF
F3F3
F3FF
FBDE
FBCC
FBC0
FBC0
FFC0
FFC0
FFC0
FFC0
FFC0
FFC0
FFC0
FFC0
FFC0
FFC0
FFC0
FFC0
F7C0
F7C0
F7C0
F3C0
F3C0
F3C0
F3C0
61C0
ENDCHAR
STARTCHAR 2219
ENCODING 8729
SWIDTH 480 0
DWIDTH 20 0
BBX 6 6 5 11
BITMAP
78
FC
FC
FC
FC
78
ENDCHAR
STARTCHAR 2248
ENCODING 8776
SWIDTH 480 0
DWIDTH 20 0
BBX 16 12 0 9
BITMAP
7F00
FFFF
FFFF
FFFF
00FE
0010
1C00
7F8F
FFFF
FFFF
71FF
007C
ENDCHAR
ENDFONT
